#!OML:ASF H:\Terrain\Patient Classification 1\Walking\liu\liu.ASF
:FULLY-SPECIFIED
:DEGREES
130
root 9.087080 15.934200 -19.076000 6.155100 7.922380 6.078360
lowerback -9.184571 -4.508537 -7.782797
upperback -1.310991 -5.375733 2.046319
thorax 4.608428 -2.809048 5.846038
lowerneck -21.654711 -6.067853 -14.536060
upperneck 22.606102 -7.121455 12.522071
head 11.754710 -2.977634 5.878048
rclavicle 0.000000 0.000000
rhumerus -52.420174 6.315375 -90.843719
rradius 35.627899
rwrist -21.002190
rhand -34.200321 -21.958420
rfingers 7.837522
rthumb -4.808309 -54.886810
lclavicle 0.000000 0.000000
lhumerus -35.341572 -27.063301 108.469688
lradius 39.022171
lwrist 5.514465
lhand -16.654110 -27.980701
lfingers 7.837522
lthumb 12.132670 4.678575
rfemur -46.573452 9.840051 5.931123
rtibia 30.184881
rfoot -24.510420 -12.288430
rtoes -22.924660
lfemur 22.361900 1.393711 -29.227329
ltibia -0.000000
lfoot -15.090790 -2.245012
ltoes -10.239152
131
root 9.059710 15.909700 -18.914000 6.150930 8.272640 6.364450
lowerback -8.903279 -4.627623 -8.150593
upperback -1.334729 -5.521241 1.994608
thorax 4.474756 -2.881901 5.995880
lowerneck -21.662741 -6.138858 -14.611410
upperneck 22.779572 -7.182934 12.411739
head 11.827090 -3.025110 5.844553
rclavicle -0.000000 0.000000
rhumerus -52.474400 6.146294 -90.769585
rradius 35.162601
rwrist -20.968859
rhand -33.787159 -23.592800
rfingers 7.837522
rthumb -4.409306 -56.528999
lclavicle -0.000000 0.000000
lhumerus -35.714363 -26.148870 108.625778
lradius 38.175388
lwrist 5.321646
lhand -15.399450 -27.185511
lfingers 7.837522
lthumb 13.342560 5.405708
rfemur -46.241032 9.019759 6.112590
rtibia 30.663380
rfoot -23.508541 -11.107250
rtoes -21.658670
lfemur 23.078331 1.321815 -29.189161
ltibia -0.000000
lfoot -14.425401 -2.240524
ltoes -10.722855
132
root 9.029940 15.887300 -18.745300 6.301240 8.373560 6.324820
lowerback -8.971348 -4.596955 -8.147084
upperback -1.362416 -5.478198 2.046759
thorax 4.481499 -2.860374 6.051848
lowerneck -21.781101 -6.222766 -14.806770
upperneck 22.663521 -7.230982 12.477409
head 11.824341 -3.050916 5.890346
rclavicle -0.000000 -0.000000
rhumerus -52.477810 5.800014 -90.598640
rradius 34.679703
rwrist -20.776581
rhand -31.685720 -31.137699
rfingers 7.837522
rthumb -2.379949 -64.103378
lclavicle -0.000000 -0.000000
lhumerus -35.949760 -25.354782 108.806938
lradius 37.068352
lwrist 4.920894
lhand -14.846920 -26.769381
lfingers 7.837522
lthumb 13.875291 5.789630
rfemur -46.285801 8.315813 6.801025
rtibia 31.324371
rfoot -21.587721 -10.728443
rtoes -22.585861
lfemur 23.588511 1.509145 -28.739040
ltibia -0.000000
lfoot -13.939530 -2.578224
ltoes -10.687403
133
root 9.005460 15.883200 -18.570601 6.392800 8.645650 6.119520
lowerback -9.067520 -4.611387 -7.811859
upperback -1.312322 -5.518612 2.042700
thorax 4.565066 -2.879085 5.845312
lowerneck -22.088329 -6.242357 -14.591060
upperneck 22.508530 -7.254060 12.404700
head 11.818070 -3.042072 5.815711
rclavicle 0.000000 -0.000000
rhumerus -52.688023 5.651327 -90.586983
rradius 34.588840
rwrist -20.581110
rhand -28.487032 -38.656971
rfingers 7.837522
rthumb 0.709421 -71.633652
lclavicle 0.000000 -0.000000
lhumerus -36.159969 -24.581039 108.703102
lradius 36.087589
lwrist 4.483941
lhand -14.949771 -26.397800
lfingers 7.837522
lthumb 13.776070 6.167381
rfemur -46.244003 7.254533 7.848291
rtibia 31.986570
rfoot -18.588131 -11.146851
rtoes -25.292301
lfemur 24.124540 1.522653 -28.040319
ltibia 0.000000
lfoot -13.328481 -3.267528
ltoes -8.451784
134
root 8.984380 15.890400 -18.394300 6.332580 8.887290 5.954520
lowerback -8.919285 -4.673317 -7.559629
upperback -1.201255 -5.633420 2.066108
thorax 4.596317 -2.936780 5.717250
lowerneck -22.316580 -6.241543 -14.322110
upperneck 22.232101 -7.244370 12.243991
head 11.742280 -3.026122 5.700882
rclavicle 0.000000 0.000000
rhumerus -52.832890 5.794118 -90.641319
rradius 34.672993
rwrist -20.368040
rhand -29.368570 -37.410122
rfingers 7.837522
rthumb -0.141942 -70.387787
lclavicle 0.000000 0.000000
lhumerus -36.203201 -23.298771 108.425468
lradius 35.043690
lwrist 3.834600
lhand -14.555091 -26.150301
lfingers 7.837522
lthumb 14.156671 6.391187
rfemur -46.125198 6.235680 8.762204
rtibia 32.700909
rfoot -15.434540 -11.320650
rtoes -25.625271
lfemur 24.841520 1.581140 -27.407160
ltibia 0.000000
lfoot -12.438140 -3.826416
ltoes -7.255776
135
root 8.956850 15.897500 -18.222099 6.317650 9.054780 5.618720
lowerback -8.743812 -4.645025 -7.180712
upperback -1.196910 -5.647796 2.224024
thorax 4.486449 -2.936681 5.680400
lowerneck -21.996811 -6.357736 -14.736920
upperneck 21.746340 -7.348616 12.517780
head 11.548130 -3.082178 5.843937
rclavicle 0.000000 0.000000
rhumerus -53.003613 5.823345 -90.573128
rradius 34.649891
rwrist -20.267832
rhand -33.524483 -31.969521
rfingers 7.837522
rthumb -4.155690 -64.910446
lclavicle 0.000000 0.000000
lhumerus -36.402740 -22.116049 108.525238
lradius 33.699490
lwrist 3.087337
lhand -14.761451 -26.321131
lfingers 7.837522
lthumb 13.957680 6.232842
rfemur -46.174812 5.709715 9.621074
rtibia 33.549892
rfoot -12.908610 -11.384121
rtoes -22.479710
lfemur 25.445309 1.744149 -26.661911
ltibia 0.000000
lfoot -11.576070 -3.656169
ltoes -11.353980
136
root 8.925590 15.899500 -18.046801 6.420620 9.204030 5.279160
lowerback -8.869388 -4.543121 -6.658366
upperback -1.186944 -5.548367 2.205753
thorax 4.505941 -2.878964 5.373467
lowerneck -21.820480 -6.479319 -14.948891
upperneck 21.504120 -7.543569 12.859330
head 11.478610 -3.153777 5.970239
rclavicle -0.000000 0.000000
rhumerus -53.269814 5.596833 -90.739220
rradius 34.452442
rwrist -20.669331
rhand -33.484879 -32.571110
rfingers 7.837522
rthumb -4.117498 -65.512703
lclavicle -0.000000 0.000000
lhumerus -36.597992 -21.695850 108.483757
lradius 32.174011
lwrist 2.577960
lhand -15.653330 -26.861122
lfingers 7.837522
lthumb 13.097700 5.744409
rfemur -46.299660 5.232986 10.502657
rtibia 34.492809
rfoot -11.107140 -11.482130
rtoes -21.112740
lfemur 25.832291 1.914231 -25.893341
ltibia -0.000000
lfoot -10.640839 -3.475263
ltoes -14.289770
137
root 8.896960 15.893400 -17.867901 6.468040 9.155440 5.091060
lowerback -8.981610 -4.397877 -6.310458
upperback -1.120493 -5.373093 2.089923
thorax 4.575186 -2.788071 5.071506
lowerneck -22.142782 -6.520272 -14.767611
upperneck 21.448460 -7.655780 13.039730
head 11.535810 -3.160729 5.985771
rclavicle 0.000000 0.000000
rhumerus -53.506973 5.458288 -91.054703
rradius 34.050941
rwrist -20.630831
rhand -30.137470 -35.876389
rfingers 7.837522
rthumb -0.884652 -68.852409
lclavicle 0.000000 0.000000
lhumerus -36.719318 -21.063789 108.181923
lradius 30.775911
lwrist 2.131921
lhand -15.849570 -27.028320
lfingers 7.837522
lthumb 12.908500 5.588132
rfemur -46.460590 4.636511 11.337481
rtibia 35.614372
rfoot -9.594475 -11.069520
rtoes -22.709831
lfemur 26.298910 2.275262 -25.265020
ltibia 0.000000
lfoot -9.734857 -3.669809
ltoes -14.258090
138
root 8.870980 15.880400 -17.698900 6.504140 9.004950 4.922210
lowerback -8.795832 -4.164600 -6.017946
upperback -1.171236 -5.098170 2.067736
thorax 4.358068 -2.640011 4.934864
lowerneck -22.245079 -6.598989 -14.966930
upperneck 21.411280 -7.783413 13.422860
head 11.585310 -3.188152 6.141949
rclavicle -0.000000 -0.000000
rhumerus -53.698372 5.206696 -91.100578
rradius 33.661102
rwrist -19.892950
rhand -28.600000 -36.299118
rfingers 7.837522
rthumb 0.600309 -69.276024
lclavicle -0.000000 -0.000000
lhumerus -37.139519 -19.580660 107.909012
lradius 29.861370
lwrist 1.569183
lhand -15.151730 -26.689411
lfingers 7.837522
lthumb 13.581370 5.887618
rfemur -46.776512 3.939496 12.191191
rtibia 36.913471
rfoot -8.148976 -10.033167
rtoes -24.195490
lfemur 26.774330 2.742663 -24.665409
ltibia 0.000000
lfoot -8.550498 -3.877467
ltoes -14.793460
139
root 8.847250 15.866500 -17.533600 6.548030 8.922190 4.971530
lowerback -8.559937 -4.085785 -6.008541
upperback -1.198076 -5.006529 2.048134
thorax 4.184642 -2.589510 4.936041
lowerneck -22.173691 -6.599516 -15.016760
upperneck 21.335491 -7.793654 13.512840
head 11.552200 -3.188669 6.180724
rclavicle 0.000000 0.000000
rhumerus -53.647221 5.254931 -91.160851
rradius 33.509411
rwrist -19.775801
rhand -29.319731 -33.569031
rfingers 7.837522
rthumb -0.094843 -66.546700
lclavicle 0.000000 0.000000
lhumerus -37.180771 -16.733749 106.991943
lradius 28.871151
lwrist 0.598235
lhand -6.848182 -20.436352
lfingers 7.837522
lthumb 21.577049 11.497089
rfemur -46.986721 3.263590 12.675410
rtibia 38.190681
rfoot -7.083560 -8.758904
rtoes -24.298231
lfemur 27.271530 3.116850 -24.327162
ltibia 0.000000
lfoot -6.805656 -3.963289
ltoes -14.969460
140
root 8.819380 15.861900 -17.362900 6.557970 8.851550 5.114550
lowerback -8.445195 -4.086203 -6.142906
upperback -1.131702 -4.998125 1.961267
thorax 4.192177 -2.588531 4.926031
lowerneck -22.153450 -6.550555 -14.717780
upperneck 21.061920 -7.752284 13.335080
head 11.423940 -3.166603 6.060703
rclavicle 0.000000 0.000000
rhumerus -53.537880 5.430689 -91.329041
rradius 33.311852
rwrist -19.821341
rhand -30.634119 -29.513109
rfingers 7.837522
rthumb -1.364264 -62.486820
lclavicle 0.000000 0.000000
lhumerus -36.948559 -13.751431 105.698013
lradius 27.591631
lwrist -0.581011
lhand -2.490818 -18.328859
lfingers 7.837522
lthumb 25.761780 13.125421
rfemur -47.071751 2.962960 12.844590
rtibia 39.345680
rfoot -6.329158 -7.542425
rtoes -22.507210
lfemur 27.823622 3.470137 -24.107601
ltibia -0.000000
lfoot -5.081516 -3.840485
ltoes -14.281960
